<?xml version="1.0"?>
<!-- Generated by SVGo -->
<svg width="415.763mm" height="144.301mm"
     viewBox="0.000 0.000 415.763 144.301"
     xmlns="http://www.w3.org/2000/svg" 
     xmlns:xlink="http://www.w3.org/1999/xlink">
<polygon points="202.881,15.000 15.000,15.000 15.000,129.300 400.763,129.300 400.763,15.000 212.881,15.000 212.881,5.000 410.763,5.000 410.763,139.301 5.000,139.301 5.000,5.000 202.881,5.000" style="fill:none;stroke-width:0.050000mm;stroke:black"/>
<polygon points="9.505,132.779 9.059,133.006 8.705,133.360 8.478,133.806 8.400,134.301 8.478,134.795 8.705,135.241 9.059,135.595 9.505,135.822 10.000,135.901 10.494,135.822 10.940,135.595 11.294,135.241 11.521,134.795 11.600,134.301 11.521,133.806 11.294,133.360 10.940,133.006 10.494,132.779 10.000,132.701" style="fill:none;stroke-width:0.050000mm;stroke:black"/>
<polygon points="207.387,132.779 206.941,133.006 206.587,133.360 206.360,133.806 206.281,134.301 206.360,134.795 206.587,135.241 206.941,135.595 207.387,135.822 207.881,135.901 208.376,135.822 208.822,135.595 209.176,135.241 209.403,134.795 209.481,134.301 209.403,133.806 209.176,133.360 208.822,133.006 208.376,132.779 207.881,132.701" style="fill:none;stroke-width:0.050000mm;stroke:black"/>
<polygon points="405.269,132.779 404.823,133.006 404.469,133.360 404.241,133.806 404.163,134.301 404.241,134.795 404.469,135.241 404.823,135.595 405.269,135.822 405.763,135.901 406.257,135.822 406.703,135.595 407.057,135.241 407.285,134.795 407.363,134.301 407.285,133.806 407.057,133.360 406.703,133.006 406.257,132.779 405.763,132.701" style="fill:none;stroke-width:0.050000mm;stroke:black"/>
<polygon points="9.505,8.478 9.059,8.705 8.705,9.059 8.478,9.505 8.400,10.000 8.478,10.494 8.705,10.940 9.059,11.294 9.505,11.521 10.000,11.600 10.494,11.521 10.940,11.294 11.294,10.940 11.521,10.494 11.600,10.000 11.521,9.505 11.294,9.059 10.940,8.705 10.494,8.478 10.000,8.400" style="fill:none;stroke-width:0.050000mm;stroke:black"/>
<polygon points="405.269,8.478 404.823,8.705 404.469,9.059 404.241,9.505 404.163,10.000 404.241,10.494 404.469,10.940 404.823,11.294 405.269,11.521 405.763,11.600 406.257,11.521 406.703,11.294 407.057,10.940 407.285,10.494 407.363,10.000 407.285,9.505 407.057,9.059 406.703,8.705 406.257,8.478 405.763,8.400" style="fill:none;stroke-width:0.050000mm;stroke:black"/>
</svg>
