<?xml version="1.0"?>
<!-- Generated by SVGo -->
<svg width="415.763mm" height="144.301mm"
     viewBox="0.000 0.000 415.763 144.301"
     xmlns="http://www.w3.org/2000/svg" 
     xmlns:xlink="http://www.w3.org/1999/xlink">
<polygon points="410.763,139.301 5.000,139.301 5.000,5.000 410.763,5.000" style="fill:none;stroke-width:0.050000mm;stroke:black"/>
<polygon points="9.505,132.779 9.059,133.006 8.705,133.360 8.478,133.806 8.400,134.301 8.478,134.795 8.705,135.241 9.059,135.595 9.505,135.822 10.000,135.901 10.494,135.822 10.940,135.595 11.294,135.241 11.521,134.795 11.600,134.301 11.521,133.806 11.294,133.360 10.940,133.006 10.494,132.779 10.000,132.701" style="fill:none;stroke-width:0.050000mm;stroke:black"/>
<polygon points="207.387,132.779 206.941,133.006 206.587,133.360 206.360,133.806 206.281,134.301 206.360,134.795 206.587,135.241 206.941,135.595 207.387,135.822 207.881,135.901 208.376,135.822 208.822,135.595 209.176,135.241 209.403,134.795 209.481,134.301 209.403,133.806 209.176,133.360 208.822,133.006 208.376,132.779 207.881,132.701" style="fill:none;stroke-width:0.050000mm;stroke:black"/>
<polygon points="405.269,132.779 404.823,133.006 404.469,133.360 404.241,133.806 404.163,134.301 404.241,134.795 404.469,135.241 404.823,135.595 405.269,135.822 405.763,135.901 406.257,135.822 406.703,135.595 407.057,135.241 407.285,134.795 407.363,134.301 407.285,133.806 407.057,133.360 406.703,133.006 406.257,132.779 405.763,132.701" style="fill:none;stroke-width:0.050000mm;stroke:black"/>
<polygon points="353.862,113.325 353.862,127.525 357.162,127.525 357.162,113.325" style="fill:none;stroke-width:0.050000mm;stroke:black"/>
<polygon points="330.062,113.325 330.062,127.525 333.362,127.525 333.362,113.325" style="fill:none;stroke-width:0.050000mm;stroke:black"/>
<polygon points="194.318,113.325 194.318,127.525 197.618,127.525 197.618,113.325" style="fill:none;stroke-width:0.050000mm;stroke:black"/>
<polygon points="94.318,113.325 94.318,127.525 97.618,127.525 97.618,113.325" style="fill:none;stroke-width:0.050000mm;stroke:black"/>
<polygon points="365.187,112.775 365.187,126.775 379.187,126.775 379.187,112.775" style="fill:none;stroke-width:0.050000mm;stroke:black"/>
<polygon points="336.612,112.775 336.612,126.775 350.612,126.775 350.612,112.775" style="fill:none;stroke-width:0.050000mm;stroke:black"/>
<polygon points="303.275,112.775 303.275,126.775 317.275,126.775 317.275,112.775" style="fill:none;stroke-width:0.050000mm;stroke:black"/>
<polygon points="284.225,112.775 284.225,126.775 298.225,126.775 298.225,112.775" style="fill:none;stroke-width:0.050000mm;stroke:black"/>
<polygon points="265.175,112.775 265.175,126.775 279.175,126.775 279.175,112.775" style="fill:none;stroke-width:0.050000mm;stroke:black"/>
<polygon points="246.125,112.775 246.125,126.775 260.125,126.775 260.125,112.775" style="fill:none;stroke-width:0.050000mm;stroke:black"/>
<polygon points="227.075,112.775 227.075,126.775 241.075,126.775 241.075,112.775" style="fill:none;stroke-width:0.050000mm;stroke:black"/>
<polygon points="208.025,112.775 208.025,126.775 222.025,126.775 222.025,112.775" style="fill:none;stroke-width:0.050000mm;stroke:black"/>
<polygon points="138.968,112.775 138.968,126.775 152.968,126.775 152.968,112.775" style="fill:none;stroke-width:0.050000mm;stroke:black"/>
<polygon points="67.531,112.775 67.531,126.775 81.531,126.775 81.531,112.775" style="fill:none;stroke-width:0.050000mm;stroke:black"/>
<polygon points="43.718,112.775 43.718,126.775 57.718,126.775 57.718,112.775" style="fill:none;stroke-width:0.050000mm;stroke:black"/>
<polygon points="19.906,112.775 19.906,126.775 33.906,126.775 33.906,112.775" style="fill:none;stroke-width:0.050000mm;stroke:black"/>
<polygon points="383.487,120.500 383.487,123.800 397.687,123.800 397.687,120.500" style="fill:none;stroke-width:0.050000mm;stroke:black"/>
<polygon points="384.237,103.250 384.237,117.250 398.237,117.250 398.237,103.250" style="fill:none;stroke-width:0.050000mm;stroke:black"/>
<polygon points="46.681,94.274 46.681,108.475 49.981,108.475 49.981,94.274" style="fill:none;stroke-width:0.050000mm;stroke:black"/>
<polygon points="22.881,94.274 22.881,108.475 26.181,108.475 26.181,94.274" style="fill:none;stroke-width:0.050000mm;stroke:black"/>
<polygon points="365.187,93.725 365.187,107.725 379.187,107.725 379.187,93.725" style="fill:none;stroke-width:0.050000mm;stroke:black"/>
<polygon points="346.137,93.725 346.137,107.725 360.137,107.725 360.137,93.725" style="fill:none;stroke-width:0.050000mm;stroke:black"/>
<polygon points="327.087,93.725 327.087,107.725 341.087,107.725 341.087,93.725" style="fill:none;stroke-width:0.050000mm;stroke:black"/>
<polygon points="303.275,93.725 303.275,107.725 317.275,107.725 317.275,93.725" style="fill:none;stroke-width:0.050000mm;stroke:black"/>
<polygon points="284.225,93.725 284.225,107.725 298.225,107.725 298.225,93.725" style="fill:none;stroke-width:0.050000mm;stroke:black"/>
<polygon points="258.031,93.725 258.031,107.725 272.031,107.725 272.031,93.725" style="fill:none;stroke-width:0.050000mm;stroke:black"/>
<polygon points="231.837,93.725 231.837,107.725 245.837,107.725 245.837,93.725" style="fill:none;stroke-width:0.050000mm;stroke:black"/>
<polygon points="212.787,93.725 212.787,107.725 226.787,107.725 226.787,93.725" style="fill:none;stroke-width:0.050000mm;stroke:black"/>
<polygon points="193.737,93.725 193.737,107.725 207.737,107.725 207.737,93.725" style="fill:none;stroke-width:0.050000mm;stroke:black"/>
<polygon points="174.687,93.725 174.687,107.725 188.687,107.725 188.687,93.725" style="fill:none;stroke-width:0.050000mm;stroke:black"/>
<polygon points="155.637,93.725 155.637,107.725 169.637,107.725 169.637,93.725" style="fill:none;stroke-width:0.050000mm;stroke:black"/>
<polygon points="136.587,93.725 136.587,107.725 150.587,107.725 150.587,93.725" style="fill:none;stroke-width:0.050000mm;stroke:black"/>
<polygon points="117.537,93.725 117.537,107.725 131.537,107.725 131.537,93.725" style="fill:none;stroke-width:0.050000mm;stroke:black"/>
<polygon points="98.487,93.725 98.487,107.725 112.487,107.725 112.487,93.725" style="fill:none;stroke-width:0.050000mm;stroke:black"/>
<polygon points="79.437,93.725 79.437,107.725 93.437,107.725 93.437,93.725" style="fill:none;stroke-width:0.050000mm;stroke:black"/>
<polygon points="60.387,93.725 60.387,107.725 74.387,107.725 74.387,93.725" style="fill:none;stroke-width:0.050000mm;stroke:black"/>
<polygon points="29.431,93.725 29.431,107.725 43.431,107.725 43.431,93.725" style="fill:none;stroke-width:0.050000mm;stroke:black"/>
<polygon points="383.487,96.700 383.487,100.000 397.687,100.000 397.687,96.700" style="fill:none;stroke-width:0.050000mm;stroke:black"/>
<polygon points="365.187,74.675 365.187,88.675 379.187,88.675 379.187,74.675" style="fill:none;stroke-width:0.050000mm;stroke:black"/>
<polygon points="346.137,74.675 346.137,88.675 360.137,88.675 360.137,74.675" style="fill:none;stroke-width:0.050000mm;stroke:black"/>
<polygon points="327.087,74.675 327.087,88.675 341.087,88.675 341.087,74.675" style="fill:none;stroke-width:0.050000mm;stroke:black"/>
<polygon points="303.275,74.675 303.275,88.675 317.275,88.675 317.275,74.675" style="fill:none;stroke-width:0.050000mm;stroke:black"/>
<polygon points="260.411,74.675 260.411,88.675 274.412,88.675 274.412,74.675" style="fill:none;stroke-width:0.050000mm;stroke:black"/>
<polygon points="241.362,74.675 241.362,88.675 255.362,88.675 255.362,74.675" style="fill:none;stroke-width:0.050000mm;stroke:black"/>
<polygon points="222.312,74.675 222.312,88.675 236.312,88.675 236.312,74.675" style="fill:none;stroke-width:0.050000mm;stroke:black"/>
<polygon points="203.262,74.675 203.262,88.675 217.262,88.675 217.262,74.675" style="fill:none;stroke-width:0.050000mm;stroke:black"/>
<polygon points="184.212,74.675 184.212,88.675 198.212,88.675 198.212,74.675" style="fill:none;stroke-width:0.050000mm;stroke:black"/>
<polygon points="165.162,74.675 165.162,88.675 179.162,88.675 179.162,74.675" style="fill:none;stroke-width:0.050000mm;stroke:black"/>
<polygon points="146.112,74.675 146.112,88.675 160.112,88.675 160.112,74.675" style="fill:none;stroke-width:0.050000mm;stroke:black"/>
<polygon points="127.062,74.675 127.062,88.675 141.062,88.675 141.062,74.675" style="fill:none;stroke-width:0.050000mm;stroke:black"/>
<polygon points="108.012,74.675 108.012,88.675 122.012,88.675 122.012,74.675" style="fill:none;stroke-width:0.050000mm;stroke:black"/>
<polygon points="88.962,74.675 88.962,88.675 102.962,88.675 102.962,74.675" style="fill:none;stroke-width:0.050000mm;stroke:black"/>
<polygon points="69.912,74.675 69.912,88.675 83.912,88.675 83.912,74.675" style="fill:none;stroke-width:0.050000mm;stroke:black"/>
<polygon points="50.862,74.675 50.862,88.675 64.861,88.675 64.861,74.675" style="fill:none;stroke-width:0.050000mm;stroke:black"/>
<polygon points="24.668,74.675 24.668,88.675 38.668,88.675 38.668,74.675" style="fill:none;stroke-width:0.050000mm;stroke:black"/>
<polygon points="383.487,82.400 383.487,85.700 397.687,85.700 397.687,82.400" style="fill:none;stroke-width:0.050000mm;stroke:black"/>
<polygon points="281.093,82.400 281.093,85.700 295.293,85.700 295.293,82.400" style="fill:none;stroke-width:0.050000mm;stroke:black"/>
<polygon points="384.237,65.150 384.237,79.150 398.237,79.150 398.237,65.150" style="fill:none;stroke-width:0.050000mm;stroke:black"/>
<polygon points="281.843,65.150 281.843,79.150 295.843,79.150 295.843,65.150" style="fill:none;stroke-width:0.050000mm;stroke:black"/>
<polygon points="365.187,55.625 365.187,69.625 379.187,69.625 379.187,55.625" style="fill:none;stroke-width:0.050000mm;stroke:black"/>
<polygon points="346.137,55.625 346.137,69.625 360.137,69.625 360.137,55.625" style="fill:none;stroke-width:0.050000mm;stroke:black"/>
<polygon points="327.087,55.625 327.087,69.625 341.087,69.625 341.087,55.625" style="fill:none;stroke-width:0.050000mm;stroke:black"/>
<polygon points="303.275,55.625 303.275,69.625 317.275,69.625 317.275,55.625" style="fill:none;stroke-width:0.050000mm;stroke:black"/>
<polygon points="255.650,55.625 255.650,69.625 269.650,69.625 269.650,55.625" style="fill:none;stroke-width:0.050000mm;stroke:black"/>
<polygon points="236.600,55.625 236.600,69.625 250.600,69.625 250.600,55.625" style="fill:none;stroke-width:0.050000mm;stroke:black"/>
<polygon points="217.550,55.625 217.550,69.625 231.550,69.625 231.550,55.625" style="fill:none;stroke-width:0.050000mm;stroke:black"/>
<polygon points="198.500,55.625 198.500,69.625 212.500,69.625 212.500,55.625" style="fill:none;stroke-width:0.050000mm;stroke:black"/>
<polygon points="179.450,55.625 179.450,69.625 193.450,69.625 193.450,55.625" style="fill:none;stroke-width:0.050000mm;stroke:black"/>
<polygon points="160.400,55.625 160.400,69.625 174.400,69.625 174.400,55.625" style="fill:none;stroke-width:0.050000mm;stroke:black"/>
<polygon points="141.350,55.625 141.350,69.625 155.350,69.625 155.350,55.625" style="fill:none;stroke-width:0.050000mm;stroke:black"/>
<polygon points="122.300,55.625 122.300,69.625 136.300,69.625 136.300,55.625" style="fill:none;stroke-width:0.050000mm;stroke:black"/>
<polygon points="103.250,55.625 103.250,69.625 117.250,69.625 117.250,55.625" style="fill:none;stroke-width:0.050000mm;stroke:black"/>
<polygon points="84.200,55.625 84.200,69.625 98.200,69.625 98.200,55.625" style="fill:none;stroke-width:0.050000mm;stroke:black"/>
<polygon points="65.150,55.625 65.150,69.625 79.150,69.625 79.150,55.625" style="fill:none;stroke-width:0.050000mm;stroke:black"/>
<polygon points="46.100,55.625 46.100,69.625 60.100,69.625 60.100,55.625" style="fill:none;stroke-width:0.050000mm;stroke:black"/>
<polygon points="22.287,55.625 22.287,69.625 36.287,69.625 36.287,55.625" style="fill:none;stroke-width:0.050000mm;stroke:black"/>
<polygon points="383.487,58.600 383.487,61.900 397.687,61.900 397.687,58.600" style="fill:none;stroke-width:0.050000mm;stroke:black"/>
<polygon points="281.093,58.600 281.093,61.900 295.293,61.900 295.293,58.600" style="fill:none;stroke-width:0.050000mm;stroke:black"/>
<polygon points="291.950,37.125 291.950,51.325 295.250,51.325 295.250,37.125" style="fill:none;stroke-width:0.050000mm;stroke:black"/>
<polygon points="268.150,37.125 268.150,51.325 271.450,51.325 271.450,37.125" style="fill:none;stroke-width:0.050000mm;stroke:black"/>
<polygon points="384.237,36.575 384.237,50.575 398.237,50.575 398.237,36.575" style="fill:none;stroke-width:0.050000mm;stroke:black"/>
<polygon points="365.187,36.575 365.187,50.575 379.187,50.575 379.187,36.575" style="fill:none;stroke-width:0.050000mm;stroke:black"/>
<polygon points="346.137,36.575 346.137,50.575 360.137,50.575 360.137,36.575" style="fill:none;stroke-width:0.050000mm;stroke:black"/>
<polygon points="327.087,36.575 327.087,50.575 341.087,50.575 341.087,36.575" style="fill:none;stroke-width:0.050000mm;stroke:black"/>
<polygon points="303.275,36.575 303.275,50.575 317.275,50.575 317.275,36.575" style="fill:none;stroke-width:0.050000mm;stroke:black"/>
<polygon points="274.700,36.575 274.700,50.575 288.700,50.575 288.700,36.575" style="fill:none;stroke-width:0.050000mm;stroke:black"/>
<polygon points="246.125,36.575 246.125,50.575 260.125,50.575 260.125,36.575" style="fill:none;stroke-width:0.050000mm;stroke:black"/>
<polygon points="227.075,36.575 227.075,50.575 241.075,50.575 241.075,36.575" style="fill:none;stroke-width:0.050000mm;stroke:black"/>
<polygon points="208.025,36.575 208.025,50.575 222.025,50.575 222.025,36.575" style="fill:none;stroke-width:0.050000mm;stroke:black"/>
<polygon points="188.975,36.575 188.975,50.575 202.975,50.575 202.975,36.575" style="fill:none;stroke-width:0.050000mm;stroke:black"/>
<polygon points="169.925,36.575 169.925,50.575 183.925,50.575 183.925,36.575" style="fill:none;stroke-width:0.050000mm;stroke:black"/>
<polygon points="150.875,36.575 150.875,50.575 164.875,50.575 164.875,36.575" style="fill:none;stroke-width:0.050000mm;stroke:black"/>
<polygon points="131.825,36.575 131.825,50.575 145.825,50.575 145.825,36.575" style="fill:none;stroke-width:0.050000mm;stroke:black"/>
<polygon points="112.774,36.575 112.774,50.575 126.774,50.575 126.774,36.575" style="fill:none;stroke-width:0.050000mm;stroke:black"/>
<polygon points="93.725,36.575 93.725,50.575 107.725,50.575 107.725,36.575" style="fill:none;stroke-width:0.050000mm;stroke:black"/>
<polygon points="74.675,36.575 74.675,50.575 88.675,50.575 88.675,36.575" style="fill:none;stroke-width:0.050000mm;stroke:black"/>
<polygon points="55.625,36.575 55.625,50.575 69.625,50.575 69.625,36.575" style="fill:none;stroke-width:0.050000mm;stroke:black"/>
<polygon points="36.575,36.575 36.575,50.575 50.575,50.575 50.575,36.575" style="fill:none;stroke-width:0.050000mm;stroke:black"/>
<polygon points="17.525,36.575 17.525,50.575 31.525,50.575 31.525,36.575" style="fill:none;stroke-width:0.050000mm;stroke:black"/>
<polygon points="303.275,17.525 303.275,31.525 317.275,31.525 317.275,17.525" style="fill:none;stroke-width:0.050000mm;stroke:black"/>
<polygon points="284.225,17.525 284.225,31.525 298.225,31.525 298.225,17.525" style="fill:none;stroke-width:0.050000mm;stroke:black"/>
<polygon points="265.175,17.525 265.175,31.525 279.175,31.525 279.175,17.525" style="fill:none;stroke-width:0.050000mm;stroke:black"/>
<polygon points="246.125,17.525 246.125,31.525 260.125,31.525 260.125,17.525" style="fill:none;stroke-width:0.050000mm;stroke:black"/>
<polygon points="227.075,17.525 227.075,31.525 241.075,31.525 241.075,17.525" style="fill:none;stroke-width:0.050000mm;stroke:black"/>
<polygon points="208.025,17.525 208.025,31.525 222.025,31.525 222.025,17.525" style="fill:none;stroke-width:0.050000mm;stroke:black"/>
<polygon points="188.975,17.525 188.975,31.525 202.975,31.525 202.975,17.525" style="fill:none;stroke-width:0.050000mm;stroke:black"/>
<polygon points="169.925,17.525 169.925,31.525 183.925,31.525 183.925,17.525" style="fill:none;stroke-width:0.050000mm;stroke:black"/>
<polygon points="150.875,17.525 150.875,31.525 164.875,31.525 164.875,17.525" style="fill:none;stroke-width:0.050000mm;stroke:black"/>
<polygon points="131.825,17.525 131.825,31.525 145.825,31.525 145.825,17.525" style="fill:none;stroke-width:0.050000mm;stroke:black"/>
<polygon points="112.774,17.525 112.774,31.525 126.774,31.525 126.774,17.525" style="fill:none;stroke-width:0.050000mm;stroke:black"/>
<polygon points="93.725,17.525 93.725,31.525 107.725,31.525 107.725,17.525" style="fill:none;stroke-width:0.050000mm;stroke:black"/>
<polygon points="74.675,17.525 74.675,31.525 88.675,31.525 88.675,17.525" style="fill:none;stroke-width:0.050000mm;stroke:black"/>
<polygon points="55.625,17.525 55.625,31.525 69.625,31.525 69.625,17.525" style="fill:none;stroke-width:0.050000mm;stroke:black"/>
<polygon points="36.575,17.525 36.575,31.525 50.575,31.525 50.575,17.525" style="fill:none;stroke-width:0.050000mm;stroke:black"/>
<polygon points="17.525,17.525 17.525,31.525 31.525,31.525 31.525,17.525" style="fill:none;stroke-width:0.050000mm;stroke:black"/>
<polygon points="9.505,8.478 9.059,8.705 8.705,9.059 8.478,9.505 8.400,10.000 8.478,10.494 8.705,10.940 9.059,11.294 9.505,11.521 10.000,11.600 10.494,11.521 10.940,11.294 11.294,10.940 11.521,10.494 11.600,10.000 11.521,9.505 11.294,9.059 10.940,8.705 10.494,8.478 10.000,8.400" style="fill:none;stroke-width:0.050000mm;stroke:black"/>
<polygon points="405.269,8.478 404.823,8.705 404.469,9.059 404.241,9.505 404.163,10.000 404.241,10.494 404.469,10.940 404.823,11.294 405.269,11.521 405.763,11.600 406.257,11.521 406.703,11.294 407.057,10.940 407.285,10.494 407.363,10.000 407.285,9.505 407.057,9.059 406.703,8.705 406.257,8.478 405.763,8.400" style="fill:none;stroke-width:0.050000mm;stroke:black"/>
<polygon points="207.387,8.478 206.941,8.705 206.587,9.059 206.360,9.505 206.281,10.000 206.360,10.494 206.587,10.940 206.941,11.294 207.387,11.521 207.881,11.600 208.376,11.521 208.822,11.294 209.176,10.940 209.403,10.494 209.481,10.000 209.403,9.505 209.176,9.059 208.822,8.705 208.376,8.478 207.881,8.400" style="fill:none;stroke-width:0.050000mm;stroke:black"/>
</svg>
